<?xml version="1.0" encoding="UTF-8"?> <svg xmlns="http://www.w3.org/2000/svg" xmlns:xlink="http://www.w3.org/1999/xlink" id="Слой_1" data-name="Слой 1" viewBox="0 0 91 91"> <defs> <style>.cls-1{fill:#6d4084;}.cls-2{isolation:isolate;}.cls-3{fill:#e9b94e;}.cls-4{fill:#d06869;}.cls-5{fill:#f0f0f0;}.cls-6{fill:#d27472;}.cls-7{fill:url(#Безымянный_градиент_2);}.cls-8{fill:#d57d79;}.cls-9{fill:#f4daa3;}.cls-10{fill:#fff;}</style> <linearGradient id="Безымянный_градиент_2" x1="8.48" y1="54.24" x2="52.44" y2="54.24" gradientUnits="userSpaceOnUse"> <stop offset="0" stop-color="#a086b3"></stop> <stop offset="1" stop-color="#d27472"></stop> </linearGradient> </defs> <title>Book</title> <path class="cls-1" d="M81.28,46.68A2.11,2.11,0,0,0,82.52,45v-.68a2.09,2.09,0,0,0-1.26-1.81L43.35,20.57a6.67,6.67,0,0,0-6,0L8.49,37.33v8.44l44,25.38v-.73h0v.73L81.28,54.39a2.09,2.09,0,0,0,1.23-1.73v-.73s0,0,0,.06a2.1,2.1,0,0,0-1.25-1.82l-1.43-.82V47.52Z"></path> <g class="cls-2"> <polygon class="cls-3" points="52.44 70.42 52.44 71.15 8.48 45.77 8.48 45.04 52.44 70.42"></polygon> <path class="cls-4" d="M81.26,50.17c1.67,1,1.68,2.53,0,3.49L52.44,70.42,8.48,45,37.32,28.28a6.67,6.67,0,0,1,6,0Z"></path> </g> <g class="cls-2"> <path class="cls-5" d="M78.59,47,51.92,62.49v7L78.58,54a2.11,2.11,0,0,0,1.24-1.74v-7A2.1,2.1,0,0,1,78.59,47Z"></path> </g> <path class="cls-6" d="M81.26,42.46c1.67,1,1.68,2.53,0,3.49L52.44,62.71,8.49,37.33,37.32,20.57a6.67,6.67,0,0,1,6,0Z"></path> <polygon class="cls-7" points="8.48 37.33 8.48 45.77 52.44 71.15 52.44 62.71 8.48 37.33"></polygon> <path class="cls-8" d="M81.28,46.68A2.11,2.11,0,0,0,82.52,45v-.73A2.11,2.11,0,0,1,81.28,46L52.44,62.71v8.44L81.28,54.39a2.09,2.09,0,0,0,1.23-1.73v-.73a2.14,2.14,0,0,1-1.24,1.73L53,70.09v-7Z"></path> <polyline class="cls-9" points="58.79 62.06 55.67 63.87 55.69 70.61 57.25 68.35 58.81 68.8 58.79 62.06"></polyline> <path class="cls-10" d="M36.92,44.82l-1.56-1.68,2.86.92-1.3.76M43.69,44,34,41.33l-1.79,1L36.93,48l2-1.16-1-1.06,1.9-1.11,1.85.56,2-1.16"></path> <polyline class="cls-10" points="47.35 39.67 45.63 38.67 42.48 40.51 44.2 41.5 47.35 39.67"></polyline> <polyline class="cls-10" points="58.01 35.72 56.28 34.73 53.08 36.59 52.22 32.45 50.75 31.6 45.28 34.77 47.01 35.77 50.2 33.91 50.86 38.17 52.33 39.02 58.01 35.72"></polyline> </svg> 