<?xml version="1.0" encoding="UTF-8"?> <svg xmlns="http://www.w3.org/2000/svg" xmlns:xlink="http://www.w3.org/1999/xlink" id="Слой_1" data-name="Слой 1" viewBox="0 0 91 91"> <defs> <style>.cls-1{fill:#f0f0f0;}.cls-2{fill:#e3e3e3;}.cls-3{fill:#d8d8d8;}.cls-4{fill:#ededed;}.cls-5{fill:url(#Безымянный_градиент_2);}.cls-6{isolation:isolate;}.cls-7{fill:#d27472;}.cls-8{fill:url(#Безымянный_градиент_2-2);}.cls-9{fill:#9e84b2;}</style> <linearGradient id="Безымянный_градиент_2" x1="18.76" y1="29.28" x2="72.24" y2="29.28" gradientUnits="userSpaceOnUse"> <stop offset="0" stop-color="#a086b3"></stop> <stop offset="1" stop-color="#d27472"></stop> </linearGradient> <linearGradient id="Безымянный_градиент_2-2" x1="18.79" y1="23.98" x2="72.24" y2="23.98" xlink:href="#Безымянный_градиент_2"></linearGradient> </defs> <title>Calendar</title> <path class="cls-1" d="M25.38,8.48l-6.59,3.83,0,10.6L55.11,44,18.76,22.91V55.35L65.65,82.52l6.59-3.83V46.25h0V35.65Z"></path> <polyline class="cls-2" points="56.33 71.47 56.33 71.47 56.33 77.14 65.65 72.16 64.64 72.44"></polyline> <polygon class="cls-3" points="56.33 77.14 65.65 72.16 65.65 82.52 56.33 77.14"></polygon> <polygon class="cls-4" points="65.65 50.09 72.24 46.25 72.24 78.69 65.65 82.52 65.65 50.09"></polygon> <polygon class="cls-5" points="25.38 8.48 18.79 12.31 18.76 22.91 65.65 50.09 72.24 46.25 72.24 35.65 25.38 8.48"></polygon> <g class="cls-6"> <polygon class="cls-7" points="65.65 39.48 72.24 35.65 72.24 46.25 65.65 50.09 65.65 39.48"></polygon> <polygon class="cls-8" points="18.79 12.31 25.38 8.48 72.24 35.65 65.65 39.48 18.79 12.31"></polygon> </g> <polyline class="cls-9" points="35.15 35.26 30.28 32.45 30.27 38.05 35.13 40.85 35.15 35.26"></polyline> <polyline class="cls-9" points="41.33 38.83 36.47 36.02 36.45 41.62 41.31 44.42 41.33 38.83"></polyline> <polyline class="cls-9" points="47.51 42.4 42.65 39.59 42.63 45.18 47.5 47.99 47.51 42.4"></polyline> <polyline class="cls-9" points="53.69 45.97 48.83 43.16 48.81 48.75 53.68 51.56 53.69 45.97"></polyline> <polyline class="cls-9" points="59.88 49.54 55.01 46.73 54.99 52.32 59.86 55.13 59.88 49.54"></polyline> <polyline class="cls-2" points="28.95 38.49 24.08 35.68 24.07 41.27 28.93 44.08 28.95 38.49"></polyline> <polyline class="cls-2" points="35.13 42.06 30.26 39.25 30.25 44.84 35.11 47.65 35.13 42.06"></polyline> <polyline class="cls-2" points="41.31 45.63 36.45 42.82 36.43 48.41 41.3 51.22 41.31 45.63"></polyline> <polyline class="cls-2" points="47.49 49.2 42.63 46.39 42.61 51.98 47.48 54.79 47.49 49.2"></polyline> <polyline class="cls-2" points="53.67 52.76 48.81 49.95 48.79 55.55 53.66 58.36 53.67 52.76"></polyline> <polyline class="cls-2" points="59.85 56.33 54.99 53.52 54.97 59.12 59.84 61.92 59.85 56.33"></polyline> <polyline class="cls-2" points="28.93 45.28 24.06 42.48 24.05 48.07 28.91 50.88 28.93 45.28"></polyline> <polyline class="cls-2" points="35.11 48.85 30.25 46.04 30.23 51.63 35.09 54.45 35.11 48.85"></polyline> <polyline class="cls-2" points="41.29 52.42 36.43 49.61 36.41 55.2 41.28 58.01 41.29 52.42"></polyline> <polyline class="cls-2" points="47.47 55.99 42.61 53.18 42.59 58.77 47.46 61.58 47.47 55.99"></polyline> <polyline class="cls-2" points="53.66 59.56 48.79 56.75 48.77 62.34 53.64 65.15 53.66 59.56"></polyline> <polyline class="cls-2" points="59.84 63.13 54.97 60.32 54.95 65.91 59.82 68.72 59.84 63.13"></polyline> <polyline class="cls-2" points="28.91 52.08 24.05 49.27 24.03 54.86 28.89 57.67 28.91 52.08"></polyline> <polyline class="cls-2" points="35.09 55.65 30.23 52.84 30.21 58.43 35.08 61.24 35.09 55.65"></polyline> <polyline class="cls-2" points="41.27 59.22 36.41 56.41 36.39 62 41.26 64.81 41.27 59.22"></polyline> <polyline class="cls-2" points="47.45 62.79 42.59 59.98 42.57 65.57 47.44 68.38 47.45 62.79"></polyline> <polyline class="cls-2" points="53.64 66.36 48.77 63.55 48.75 69.14 53.62 71.95 53.64 66.36"></polyline> </svg> 