<?xml version="1.0" encoding="UTF-8"?> <svg xmlns="http://www.w3.org/2000/svg" xmlns:xlink="http://www.w3.org/1999/xlink" id="Слой_1" data-name="Слой 1" viewBox="0 0 91 91"> <defs> <style>.cls-1{fill:url(#Безымянный_градиент_2);}.cls-2{fill:#d27472;}.cls-3{fill:#d06869;}.cls-4{fill:#e9e9e9;}.cls-5{fill:#fff;}</style> <linearGradient id="Безымянный_градиент_2" x1="22.53" y1="45.5" x2="68.47" y2="45.5" gradientUnits="userSpaceOnUse"> <stop offset="0" stop-color="#a086b3"></stop> <stop offset="1" stop-color="#d27472"></stop> </linearGradient> </defs> <title>Play</title> <path class="cls-1" d="M66.77,18.46h0l-.1-.06-6.45-3.74a3.5,3.5,0,0,0-3.43.06L26,32.57a6.84,6.84,0,0,0-3.43,5.93v31a3.5,3.5,0,0,0,2,3.16h0l6.2,3.6h0a3.46,3.46,0,0,0,3.52,0L65,58.43a6.84,6.84,0,0,0,3.43-5.93v-31A3.49,3.49,0,0,0,66.77,18.46Z"></path> <path class="cls-2" d="M32.36,36.28,63.19,18.42a3.52,3.52,0,0,1,5.28,3v31A6.84,6.84,0,0,1,65,58.43L34.22,76.29a3.52,3.52,0,0,1-5.28-3.05v-31A6.83,6.83,0,0,1,32.36,36.28Z"></path> <path class="cls-3" d="M33.83,40.5h0a1.83,1.83,0,0,1,2.75,1.59v3.73a3.58,3.58,0,0,1-1.78,3.09h0A1.83,1.83,0,0,1,32,47.33V43.59A3.57,3.57,0,0,1,33.83,40.5Z"></path> <path class="cls-3" d="M33.83,52h0a1.83,1.83,0,0,1,2.75,1.59v3.73a3.58,3.58,0,0,1-1.78,3.09h0A1.83,1.83,0,0,1,32,58.84V55.1A3.54,3.54,0,0,1,33.83,52Z"></path> <path class="cls-3" d="M33.83,63.53h0a1.83,1.83,0,0,1,2.75,1.59v3.73a3.58,3.58,0,0,1-1.78,3.09h0A1.83,1.83,0,0,1,32,70.35V66.62A3.55,3.55,0,0,1,33.83,63.53Z"></path> <path class="cls-3" d="M64.09,23h0a1.83,1.83,0,0,1,2.75,1.59v3.73a3.58,3.58,0,0,1-1.78,3.09h0a1.84,1.84,0,0,1-2.76-1.58V26.09A3.54,3.54,0,0,1,64.09,23Z"></path> <path class="cls-3" d="M64.09,34.52h0a1.83,1.83,0,0,1,2.75,1.59v3.73a3.58,3.58,0,0,1-1.78,3.09h0a1.84,1.84,0,0,1-2.76-1.58V37.61A3.55,3.55,0,0,1,64.09,34.52Z"></path> <path class="cls-3" d="M64.09,46h0a1.83,1.83,0,0,1,2.75,1.59v3.73a3.58,3.58,0,0,1-1.78,3.09h0a1.84,1.84,0,0,1-2.76-1.58V49.12A3.55,3.55,0,0,1,64.09,46Z"></path> <path class="cls-4" d="M62.62,40.49h0l-3-1.75h0a1.15,1.15,0,0,0-.38-.14L44.71,35.79c-1.58-.3-3.56,2.36-3.56,4.8V62.88a2.1,2.1,0,0,0,.8,1.91h0l3,1.75h0c.72.44,1.82.07,2.77-1.22l14.48-19.5C63.7,43.89,63.82,41.17,62.62,40.49Z"></path> <path class="cls-5" d="M47.77,37.57l14.48,2.78c1.59.31,1.59,3.36,0,5.49L47.77,65.34c-1.58,2.14-3.56,1.76-3.56-.68V42.37C44.21,39.93,46.19,37.26,47.77,37.57Z"></path> </svg> 