<?xml version="1.0" encoding="UTF-8"?> <svg xmlns="http://www.w3.org/2000/svg" id="Слой_1" data-name="Слой 1" viewBox="0 0 91 91"> <defs> <style>.cls-1{fill:#efcb7e;}.cls-2{fill:#f6e3bb;}.cls-3{fill:#f4daa3;}.cls-4{fill:#f1d18d;}</style> </defs> <title>Stars</title> <polygon class="cls-1" points="55.17 18.28 51.79 16.32 45.28 17.39 48.67 19.36 55.17 18.28"></polygon> <polygon class="cls-2" points="55.17 18.28 51.79 16.32 46.96 17.11 44.75 14.2 41.36 12.24 37.44 21.92 30.94 28.35 35.02 33.26 34.92 42.39 38.31 44.35 44.75 37.71 51.19 36.92 51.09 27.9 55.17 18.28"></polygon> <polygon class="cls-3" points="44.75 14.2 48.67 19.36 55.17 18.28 51.09 27.9 51.19 36.92 44.75 37.71 38.31 44.35 38.41 35.23 34.33 30.32 40.83 23.88 44.75 14.2"></polygon> <polygon class="cls-4" points="44.75 14.2 41.36 12.24 37.44 21.92 40.83 23.88 44.75 14.2"></polygon> <polygon class="cls-4" points="38.41 35.23 35.02 33.26 30.94 28.35 34.33 30.32 38.41 35.23"></polygon> <polygon class="cls-1" points="44.71 52.69 41.32 50.72 34.82 51.8 38.2 53.77 44.71 52.69"></polygon> <polygon class="cls-2" points="44.71 52.69 41.32 50.72 36.5 51.52 34.28 48.61 30.9 46.65 26.98 56.33 20.48 62.76 24.56 67.67 24.46 76.8 27.84 78.76 34.28 72.11 40.73 71.33 40.63 62.31 44.71 52.69"></polygon> <polygon class="cls-3" points="34.28 48.61 38.2 53.77 44.71 52.69 40.63 62.31 40.73 71.33 34.28 72.11 27.84 78.76 27.94 69.63 23.86 64.72 30.36 58.29 34.28 48.61"></polygon> <polygon class="cls-4" points="34.28 48.61 30.9 46.65 26.98 56.33 30.36 58.29 34.28 48.61"></polygon> <polygon class="cls-4" points="27.94 69.63 24.56 67.67 20.48 62.76 23.86 64.72 27.94 69.63"></polygon> <polygon class="cls-1" points="70.52 37.83 67.14 35.86 60.64 36.94 64.02 38.9 70.52 37.83"></polygon> <polygon class="cls-2" points="70.52 37.83 67.14 35.86 62.31 36.66 60.1 33.75 56.72 31.78 52.8 41.46 46.29 47.89 50.37 52.8 50.27 61.93 53.66 63.9 60.1 57.25 66.54 56.46 66.44 47.44 70.52 37.83"></polygon> <polygon class="cls-3" points="60.1 33.75 64.02 38.9 70.52 37.83 66.44 47.44 66.54 56.46 60.1 57.25 53.66 63.9 53.76 54.77 49.68 49.86 56.18 43.43 60.1 33.75"></polygon> <polygon class="cls-4" points="60.1 33.75 56.72 31.78 52.8 41.46 56.18 43.43 60.1 33.75"></polygon> <polygon class="cls-4" points="53.76 54.77 50.37 52.8 46.29 47.89 49.68 49.86 53.76 54.77"></polygon> </svg> 