<?xml version="1.0" encoding="UTF-8"?> <svg xmlns="http://www.w3.org/2000/svg" xmlns:xlink="http://www.w3.org/1999/xlink" id="Слой_1" data-name="Слой 1" viewBox="0 0 91 91"> <defs> <style>.cls-1{fill:url(#Безымянный_градиент_2);}.cls-2{isolation:isolate;}.cls-3{fill:#fff;}.cls-4{fill:#d06869;}.cls-5{fill:#d27472;}.cls-6{fill:#d57d79;}</style> <linearGradient id="Безымянный_градиент_2" x1="20" y1="45.5" x2="71" y2="45.5" gradientUnits="userSpaceOnUse"> <stop offset="0" stop-color="#a086b3"></stop> <stop offset="1" stop-color="#d27472"></stop> </linearGradient> </defs> <title>Vk</title> <path class="cls-1" d="M64.36,27.07,35.05,10.14C33.2,9.08,31.52,9,30.31,9.68L22,14.49h0c-1.2.69-1.95,2.17-1.95,4.28L20,52.44a14.66,14.66,0,0,0,6.64,11.5L56,80.86c1.9,1.1,3.62,1.17,4.84.4l-.1.06L69,76.51c1.2-.69,1.94-2.17,1.94-4.27L71,38.57A14.63,14.63,0,0,0,64.36,27.07Z"></path> <g class="cls-2"> <path class="cls-3" d="M42.65,39.1l-4.92-2.84c-.65-.38-1-.28-1.33,0-.2.15-.27.3.15.63a3.72,3.72,0,0,1,1.39,2.53A23.32,23.32,0,0,1,38,44a3.54,3.54,0,0,1-.26,1.14c-.15.32-.35.41-.61.26a2,2,0,0,1-.51-.53,10.5,10.5,0,0,1-1.09-2A58.22,58.22,0,0,1,32.66,35a2.76,2.76,0,0,0-1.18-1.7l-2.13-1.25-2.13-1.21c-.86-.47-1.11-.14-.77.95a119.65,119.65,0,0,0,5.49,14.48,33.15,33.15,0,0,0,4.17,6.93,19.44,19.44,0,0,0,5.48,4.72l.75.41c1,.54,1.34.41,1.39-.74a4.12,4.12,0,0,1,.46-2.07.54.54,0,0,1,.81-.19,2.27,2.27,0,0,1,.64.62,9.1,9.1,0,0,1,.78,1.26c.58,1.06,1.14,2.13,1.74,3.19a7.08,7.08,0,0,0,2.48,2.74l.28.15,4.36,2.51c.7.35,1.06-.42.66-1.55a19.41,19.41,0,0,0-1-2.34C54,60.19,53,58.54,52,56.86c-.9-1.52-1-2.14-.23-2.87s1.64-1.54,2.43-2.34A6.73,6.73,0,0,0,56.08,49c.25-.76,0-1.28-.76-1.89a3.3,3.3,0,0,0-.42-.27l-4.74-2.74,0,0c-.56-.33-.87-.21-1.07.25a17.82,17.82,0,0,1-.91,1.86,9,9,0,0,1-2.78,3.29c-.22.14-.46.33-.79.14a1.12,1.12,0,0,1-.19-.15,3.32,3.32,0,0,1-.69-2V41.17a2.52,2.52,0,0,0-1.05-2.07"></path> </g> <g class="cls-2"> <path class="cls-4" d="M69,76.51l-8.27,4.81c1.19-.69,1.94-2.17,1.94-4.27l8.27-4.81C70.9,74.34,70.16,75.82,69,76.51Z"></path> <path class="cls-4" d="M22,14.49l8.27-4.81c1.21-.7,2.89-.6,4.74.46L26.78,15C24.93,13.88,23.25,13.78,22,14.49Z"></path> <polygon class="cls-5" points="62.73 43.37 71 38.56 70.9 72.24 62.63 77.05 62.73 43.37"></polygon> <polygon class="cls-5" points="26.78 14.95 35.05 10.14 64.36 27.07 56.09 31.87 26.78 14.95"></polygon> <path class="cls-6" d="M56.09,31.87l8.27-4.8A14.63,14.63,0,0,1,71,38.57l-8.27,4.8A14.64,14.64,0,0,0,56.09,31.87Z"></path> </g> </svg> 